# xmcd
#
# Track frame offsets:
# 150
# 10305
# 24975
# 37842
# 50635
# 63417
# 76417
# 86977
# 97687
# 109677
# 120185
# 134507
#
# Disc length: 1963 seconds
#
#
# Revision: 0
# Processed by: cddbd v1.5.2PL0 Copyright (c) Steve Scherf et al.
# Submitted via: FreeRIP 2.96 
#
DISCID=8c07a90c
DTITLE=carl and pearl butler - crying my heart out over you
DYEAR=1900
DGENRE=Country
TTITLE0=crying my heart out over you
TTITLE1=if taerdrops were pennies
TTITLE2=I hope we walk the last mile together
TTITLE3=precious memories
TTITLE4=blue eyes and waltzes
TTITLE5=garden of shame
TTITLE6=fools like me
TTITLE7=dog eat dog
TTITLE8=holding on with open arms
TTITLE9=take me back to jackson
TTITLE10=my joy
TTITLE11=dont let me cross over
EXTD=
EXTT0=
EXTT1=
EXTT2=
EXTT3=
EXTT4=
EXTT5=
EXTT6=
EXTT7=
EXTT8=
EXTT9=
EXTT10=
EXTT11=
PLAYORDER=
